<?xml version="1.0" encoding="UTF-8"?>
<svg width="280px" height="396px" viewBox="0 0 280 396" version="1.1" xmlns="http://www.w3.org/2000/svg" xmlns:xlink="http://www.w3.org/1999/xlink">
    <!-- Generator: Sketch 55.2 (78181) - https://sketchapp.com -->
    <title>Background</title>
    <desc>Created with Sketch.</desc>
    <g id="Page-1" stroke="none" stroke-width="1" fill="none" fill-rule="evenodd">
        <g id="Home-(Mobile)" transform="translate(-49.000000, -26.000000)">
            <g id="Hero-background-Copy">
                <g id="Background" transform="translate(49.000000, 26.000000)">
                    <polygon id="Rectangle-Copy-25" fill="#E0719E" opacity="0.532714844" transform="translate(12.262377, 105.066002) rotate(-22.000000) translate(-12.262377, -105.066002) " points="11.3318304 74.9903478 12.9289631 74.9972941 13.1929232 135.141656 11.5957906 135.13471"></polygon>
                    <polygon id="Rectangle-Copy-25" fill="#E0719E" opacity="0.532714844" transform="translate(267.810471, 367.823056) rotate(-22.000000) translate(-267.810471, -367.823056) " points="266.879925 337.747402 268.477057 337.754348 268.741018 397.89871 267.143885 397.891764"></polygon>
                    <polygon id="Rectangle-Copy-28" fill="#E0719E" opacity="0.532714844" transform="translate(47.930546, 257.075654) rotate(-22.000000) translate(-47.930546, -257.075654) " points="47 227 48.5971326 227.006946 48.8610928 287.151309 47.2639601 287.144362"></polygon>
                    <polygon id="Rectangle-Copy-26" fill="#E0719E" opacity="0.532714844" transform="translate(166.680972, 96.772937) rotate(24.000000) translate(-166.680972, -96.772937) " points="166.023849 66.6949316 167.620479 66.6875004 167.338095 126.850941 165.741464 126.858373"></polygon>
                    <path d="M192.070426,119.430315 C192.387123,119.03197 193.036149,119.278535 192.998424,119.78318 L192.410547,127.757118 C192.390387,128.024812 192.164072,128.232305 191.891592,128.232305 L182.313781,128.232305 C182.045847,128.232305 181.822147,128.032485 181.796126,127.769922 L181.002744,119.795984 C180.95267,119.290057 181.600377,119.028757 181.925548,119.423905 L184.617877,122.700241 L186.478468,119.491779 C186.676813,119.150439 187.176905,119.147226 187.379162,119.486656 L189.370441,122.824473 L192.070426,119.430315 Z M191.407749,127.207679 L191.836953,121.384903 L189.718151,124.049057 C189.491837,124.333409 189.045718,124.303947 188.859742,123.9927 L186.936721,120.768171 L185.143222,123.858919 C184.961792,124.172092 184.51762,124.207308 184.287411,123.927444 L182.207731,121.396415 L182.78522,127.207551 L191.407749,127.207679 Z" id="Fill-1" fill="#7FD6C2" opacity="0.53"></path>
                    <path d="M159.070426,314.430315 C159.387123,314.03197 160.036149,314.278535 159.998424,314.78318 L159.410547,322.757118 C159.390387,323.024812 159.164072,323.232305 158.891592,323.232305 L149.313781,323.232305 C149.045847,323.232305 148.822147,323.032485 148.796126,322.769922 L148.002744,314.795984 C147.95267,314.290057 148.600377,314.028757 148.925548,314.423905 L151.617877,317.700241 L153.478468,314.491779 C153.676813,314.150439 154.176905,314.147226 154.379162,314.486656 L156.370441,317.824473 L159.070426,314.430315 Z M158.407749,322.207679 L158.836953,316.384903 L156.718151,319.049057 C156.491837,319.333409 156.045718,319.303947 155.859742,318.9927 L153.936721,315.768171 L152.143222,318.858919 C151.961792,319.172092 151.51762,319.207308 151.287411,318.927444 L149.207731,316.396415 L149.78522,322.207551 L158.407749,322.207679 Z" id="Fill-1" fill="#7FD6C2" opacity="0.53"></path>
                    <path d="M271.070426,0.430314904 C271.387123,0.031970496 272.036149,0.278535143 271.998424,0.783180143 L271.410547,8.75711807 C271.390387,9.02481234 271.164072,9.2323049 270.891592,9.2323049 L261.313781,9.2323049 C261.045847,9.2323049 260.822147,9.0324851 260.796126,8.76992241 L260.002744,0.79598448 C259.95267,0.290057407 260.600377,0.0287571155 260.925548,0.423904538 L263.617877,3.70024098 L265.478468,0.491779002 C265.676813,0.150439307 266.176905,0.147225926 266.379162,0.486655628 L268.370441,3.82447256 L271.070426,0.430314904 Z M270.407749,8.20767921 L270.836953,2.38490273 L268.718151,5.04905741 C268.491837,5.33340879 268.045718,5.30394734 267.859742,4.99270029 L265.936721,1.76817141 L264.143222,4.85891874 C263.961792,5.17209217 263.51762,5.2073082 263.287411,4.92744408 L261.207731,2.39641516 L261.78522,8.20755133 L270.407749,8.20767921 Z" id="Fill-1" fill="#7FD6C2" opacity="0.53"></path>
                </g>
            </g>
        </g>
    </g>
</svg>