<?xml version="1.0" encoding="UTF-8"?>
<svg width="1014px" height="472px" viewBox="0 0 1014 472" version="1.1" xmlns="http://www.w3.org/2000/svg" xmlns:xlink="http://www.w3.org/1999/xlink">
    <!-- Generator: Sketch 55.2 (78181) - https://sketchapp.com -->
    <title>Background</title>
    <desc>Created with Sketch.</desc>
    <g id="Page-1" stroke="none" stroke-width="1" fill="none" fill-rule="evenodd">
        <g id="Home" transform="translate(-10.000000, -4.000000)">
            <g id="Hero-background">
                <g id="Background" transform="translate(10.000000, 4.000000)">
                    <polygon id="Rectangle" fill="#E0719E" opacity="0.532714844" transform="translate(24.880123, 195.003417) rotate(-22.000000) translate(-24.880123, -195.003417) " points="23.9495766 164.927763 25.5467093 164.934709 25.8106694 225.079071 24.2135368 225.072125"></polygon>
                    <polygon id="Rectangle-Copy-25" fill="#E0719E" opacity="0.532714844" transform="translate(491.262377, 127.066002) rotate(-22.000000) translate(-491.262377, -127.066002) " points="490.33183 96.9903478 491.928963 96.9972941 492.192923 157.141656 490.595791 157.13471"></polygon>
                    <polygon id="Rectangle-Copy-26" fill="#E0719E" opacity="0.532714844" transform="translate(390.132878, 398.135685) rotate(24.000000) translate(-390.132878, -398.135685) " points="389.475754 368.05768 391.072385 368.050249 390.790001 428.21369 389.19337 428.221121"></polygon>
                    <polygon id="Rectangle-Copy-30" fill="#E0719E" opacity="0.532714844" transform="translate(97.939507, 28.085436) rotate(24.000000) translate(-97.939507, -28.085436) " points="97.2823843 -1.99256883 98.8790148 -2 98.5966306 58.1634411 97 58.1708723"></polygon>
                    <polygon id="Rectangle-Copy-29" fill="#E0719E" opacity="0.532714844" transform="translate(951.939507, 83.085436) rotate(24.000000) translate(-951.939507, -83.085436) " points="951.282384 53.0074312 952.879015 53 952.596631 113.163441 951 113.170872"></polygon>
                    <polygon id="Rectangle-Copy-27" fill="#E0719E" opacity="0.532714844" transform="translate(12.930546, 443.075654) rotate(-22.000000) translate(-12.930546, -443.075654) " points="12 413 13.5971326 413.006946 13.8610928 473.151309 12.2639601 473.144362"></polygon>
                    <polygon id="Rectangle" fill="#E0719E" opacity="0.532714844" transform="translate(280.428217, 321.885641) rotate(-22.000000) translate(-280.428217, -321.885641) " points="279.497671 291.809987 281.094804 291.816933 281.358764 351.961295 279.761631 351.954349"></polygon>
                    <polygon id="Rectangle-Copy-25" fill="#E0719E" opacity="0.532714844" transform="translate(746.810471, 389.823056) rotate(-22.000000) translate(-746.810471, -389.823056) " points="745.879925 359.747402 747.477057 359.754348 747.741018 419.89871 746.143885 419.891764"></polygon>
                    <polygon id="Rectangle-Copy-28" fill="#E0719E" opacity="0.532714844" transform="translate(526.930546, 279.075654) rotate(-22.000000) translate(-526.930546, -279.075654) " points="526 249 527.597133 249.006946 527.861093 309.151309 526.26396 309.144362"></polygon>
                    <polygon id="Rectangle-Copy-26" fill="#E0719E" opacity="0.532714844" transform="translate(645.680972, 118.772937) rotate(24.000000) translate(-645.680972, -118.772937) " points="645.023849 88.6949316 646.620479 88.6875004 646.338095 148.850941 644.741464 148.858373"></polygon>
                    <polygon id="Rectangle-Copy-27" fill="#E0719E" opacity="0.532714844" transform="translate(1009.200487, 197.070390) rotate(-22.000000) translate(-1009.200487, -197.070390) " points="1008.26994 166.994736 1009.86707 167.001682 1010.13103 227.146045 1008.5339 227.139098"></polygon>
                    <path d="M671.070426,141.430315 C671.387123,141.03197 672.036149,141.278535 671.998424,141.78318 L671.410547,149.757118 C671.390387,150.024812 671.164072,150.232305 670.891592,150.232305 L661.313781,150.232305 C661.045847,150.232305 660.822147,150.032485 660.796126,149.769922 L660.002744,141.795984 C659.95267,141.290057 660.600377,141.028757 660.925548,141.423905 L663.617877,144.700241 L665.478468,141.491779 C665.676813,141.150439 666.176905,141.147226 666.379162,141.486656 L668.370441,144.824473 L671.070426,141.430315 Z M670.407749,149.207679 L670.836953,143.384903 L668.718151,146.049057 C668.491837,146.333409 668.045718,146.303947 667.859742,145.9927 L665.936721,142.768171 L664.143222,145.858919 C663.961792,146.172092 663.51762,146.207308 663.287411,145.927444 L661.207731,143.396415 L661.78522,149.207551 L670.407749,149.207679 Z" id="Fill-1" fill="#7FD6C2" opacity="0.53"></path>
                    <path d="M275.070426,380.430315 C275.387123,380.03197 276.036149,380.278535 275.998424,380.78318 L275.410547,388.757118 C275.390387,389.024812 275.164072,389.232305 274.891592,389.232305 L265.313781,389.232305 C265.045847,389.232305 264.822147,389.032485 264.796126,388.769922 L264.002744,380.795984 C263.95267,380.290057 264.600377,380.028757 264.925548,380.423905 L267.617877,383.700241 L269.478468,380.491779 C269.676813,380.150439 270.176905,380.147226 270.379162,380.486656 L272.370441,383.824473 L275.070426,380.430315 Z M274.407749,388.207679 L274.836953,382.384903 L272.718151,385.049057 C272.491837,385.333409 272.045718,385.303947 271.859742,384.9927 L269.936721,381.768171 L268.143222,384.858919 C267.961792,385.172092 267.51762,385.207308 267.287411,384.927444 L265.207731,382.396415 L265.78522,388.207551 L274.407749,388.207679 Z" id="Fill-1" fill="#7FD6C2" opacity="0.53"></path>
                    <path d="M147.070426,384.430315 C147.387123,384.03197 148.036149,384.278535 147.998424,384.78318 L147.410547,392.757118 C147.390387,393.024812 147.164072,393.232305 146.891592,393.232305 L137.313781,393.232305 C137.045847,393.232305 136.822147,393.032485 136.796126,392.769922 L136.002744,384.795984 C135.95267,384.290057 136.600377,384.028757 136.925548,384.423905 L139.617877,387.700241 L141.478468,384.491779 C141.676813,384.150439 142.176905,384.147226 142.379162,384.486656 L144.370441,387.824473 L147.070426,384.430315 Z M146.407749,392.207679 L146.836953,386.384903 L144.718151,389.049057 C144.491837,389.333409 144.045718,389.303947 143.859742,388.9927 L141.936721,385.768171 L140.143222,388.858919 C139.961792,389.172092 139.51762,389.207308 139.287411,388.927444 L137.207731,386.396415 L137.78522,392.207551 L146.407749,392.207679 Z" id="Fill-1" fill="#7FD6C2" opacity="0.53"></path>
                    <path d="M466.070426,406.430315 C466.387123,406.03197 467.036149,406.278535 466.998424,406.78318 L466.410547,414.757118 C466.390387,415.024812 466.164072,415.232305 465.891592,415.232305 L456.313781,415.232305 C456.045847,415.232305 455.822147,415.032485 455.796126,414.769922 L455.002744,406.795984 C454.95267,406.290057 455.600377,406.028757 455.925548,406.423905 L458.617877,409.700241 L460.478468,406.491779 C460.676813,406.150439 461.176905,406.147226 461.379162,406.486656 L463.370441,409.824473 L466.070426,406.430315 Z M465.407749,414.207679 L465.836953,408.384903 L463.718151,411.049057 C463.491837,411.333409 463.045718,411.303947 462.859742,410.9927 L460.936721,407.768171 L459.143222,410.858919 C458.961792,411.172092 458.51762,411.207308 458.287411,410.927444 L456.207731,408.396415 L456.78522,414.207551 L465.407749,414.207679 Z" id="Fill-1" fill="#7FD6C2" opacity="0.53"></path>
                    <path d="M276.070426,143.430315 C276.387123,143.03197 277.036149,143.278535 276.998424,143.78318 L276.410547,151.757118 C276.390387,152.024812 276.164072,152.232305 275.891592,152.232305 L266.313781,152.232305 C266.045847,152.232305 265.822147,152.032485 265.796126,151.769922 L265.002744,143.795984 C264.95267,143.290057 265.600377,143.028757 265.925548,143.423905 L268.617877,146.700241 L270.478468,143.491779 C270.676813,143.150439 271.176905,143.147226 271.379162,143.486656 L273.370441,146.824473 L276.070426,143.430315 Z M275.407749,151.207679 L275.836953,145.384903 L273.718151,148.049057 C273.491837,148.333409 273.045718,148.303947 272.859742,147.9927 L270.936721,144.768171 L269.143222,147.858919 C268.961792,148.172092 268.51762,148.207308 268.287411,147.927444 L266.207731,145.396415 L266.78522,151.207551 L275.407749,151.207679 Z" id="Fill-1" fill="#7FD6C2" opacity="0.53"></path>
                    <path d="M638.070426,336.430315 C638.387123,336.03197 639.036149,336.278535 638.998424,336.78318 L638.410547,344.757118 C638.390387,345.024812 638.164072,345.232305 637.891592,345.232305 L628.313781,345.232305 C628.045847,345.232305 627.822147,345.032485 627.796126,344.769922 L627.002744,336.795984 C626.95267,336.290057 627.600377,336.028757 627.925548,336.423905 L630.617877,339.700241 L632.478468,336.491779 C632.676813,336.150439 633.176905,336.147226 633.379162,336.486656 L635.370441,339.824473 L638.070426,336.430315 Z M637.407749,344.207679 L637.836953,338.384903 L635.718151,341.049057 C635.491837,341.333409 635.045718,341.303947 634.859742,340.9927 L632.936721,337.768171 L631.143222,340.858919 C630.961792,341.172092 630.51762,341.207308 630.287411,340.927444 L628.207731,338.396415 L628.78522,344.207551 L637.407749,344.207679 Z" id="Fill-1" fill="#7FD6C2" opacity="0.53"></path>
                    <path d="M403.070426,74.4303149 C403.387123,74.0319705 404.036149,74.2785351 403.998424,74.7831801 L403.410547,82.7571181 C403.390387,83.0248123 403.164072,83.2323049 402.891592,83.2323049 L393.313781,83.2323049 C393.045847,83.2323049 392.822147,83.0324851 392.796126,82.7699224 L392.002744,74.7959845 C391.95267,74.2900574 392.600377,74.0287571 392.925548,74.4239045 L395.617877,77.700241 L397.478468,74.491779 C397.676813,74.1504393 398.176905,74.1472259 398.379162,74.4866556 L400.370441,77.8244726 L403.070426,74.4303149 Z M402.407749,82.2076792 L402.836953,76.3849027 L400.718151,79.0490574 C400.491837,79.3334088 400.045718,79.3039473 399.859742,78.9927003 L397.936721,75.7681714 L396.143222,78.8589187 C395.961792,79.1720922 395.51762,79.2073082 395.287411,78.9274441 L393.207731,76.3964152 L393.78522,82.2075513 L402.407749,82.2076792 Z" id="Fill-1" fill="#7FD6C2" opacity="0.53"></path>
                    <path d="M211.070426,49.4303149 C211.387123,49.0319705 212.036149,49.2785351 211.998424,49.7831801 L211.410547,57.7571181 C211.390387,58.0248123 211.164072,58.2323049 210.891592,58.2323049 L201.313781,58.2323049 C201.045847,58.2323049 200.822147,58.0324851 200.796126,57.7699224 L200.002744,49.7959845 C199.95267,49.2900574 200.600377,49.0287571 200.925548,49.4239045 L203.617877,52.700241 L205.478468,49.491779 C205.676813,49.1504393 206.176905,49.1472259 206.379162,49.4866556 L208.370441,52.8244726 L211.070426,49.4303149 Z M210.407749,57.2076792 L210.836953,51.3849027 L208.718151,54.0490574 C208.491837,54.3334088 208.045718,54.3039473 207.859742,53.9927003 L205.936721,50.7681714 L204.143222,53.8589187 C203.961792,54.1720922 203.51762,54.2073082 203.287411,53.9274441 L201.207731,51.3964152 L201.78522,57.2075513 L210.407749,57.2076792 Z" id="Fill-1" fill="#7FD6C2" opacity="0.53"></path>
                    <path d="M20.0704262,78.4303149 C20.3871228,78.0319705 21.0361486,78.2785351 20.998424,78.7831801 L20.4105466,86.7571181 C20.3903875,87.0248123 20.1640717,87.2323049 19.8915924,87.2323049 L10.3137813,87.2323049 C10.0458469,87.2323049 9.8221465,87.0324851 9.79612554,86.7699224 L9.00274415,78.7959845 C8.95267003,78.2900574 9.6003773,78.0287571 9.92554779,78.4239045 L12.6178769,81.700241 L14.4784675,78.491779 C14.6768128,78.1504393 15.1769048,78.1472259 15.3791625,78.4866556 L17.3704405,81.8244726 L20.0704262,78.4303149 Z M19.4077489,86.2076792 L19.8369533,80.3849027 L17.7181509,83.0490574 C17.4918368,83.3334088 17.0457179,83.3039473 16.8597421,82.9927003 L14.9367212,79.7681714 L13.1432224,82.8589187 C12.9617915,83.1720922 12.5176205,83.2073082 12.2874107,82.9274441 L10.2077313,80.3964152 L10.7852202,86.2075513 L19.4077489,86.2076792 Z" id="Fill-1" fill="#7FD6C2" opacity="0.53"></path>
                    <path d="M750.070426,22.4303149 C750.387123,22.0319705 751.036149,22.2785351 750.998424,22.7831801 L750.410547,30.7571181 C750.390387,31.0248123 750.164072,31.2323049 749.891592,31.2323049 L740.313781,31.2323049 C740.045847,31.2323049 739.822147,31.0324851 739.796126,30.7699224 L739.002744,22.7959845 C738.95267,22.2900574 739.600377,22.0287571 739.925548,22.4239045 L742.617877,25.700241 L744.478468,22.491779 C744.676813,22.1504393 745.176905,22.1472259 745.379162,22.4866556 L747.370441,25.8244726 L750.070426,22.4303149 Z M749.407749,30.2076792 L749.836953,24.3849027 L747.718151,27.0490574 C747.491837,27.3334088 747.045718,27.3039473 746.859742,26.9927003 L744.936721,23.7681714 L743.143222,26.8589187 C742.961792,27.1720922 742.51762,27.2073082 742.287411,26.9274441 L740.207731,24.3964152 L740.78522,30.2075513 L749.407749,30.2076792 Z" id="Fill-1" fill="#7FD6C2" opacity="0.53"></path>
                    <path d="M927.070426,315.430315 C927.387123,315.03197 928.036149,315.278535 927.998424,315.78318 L927.410547,323.757118 C927.390387,324.024812 927.164072,324.232305 926.891592,324.232305 L917.313781,324.232305 C917.045847,324.232305 916.822147,324.032485 916.796126,323.769922 L916.002744,315.795984 C915.95267,315.290057 916.600377,315.028757 916.925548,315.423905 L919.617877,318.700241 L921.478468,315.491779 C921.676813,315.150439 922.176905,315.147226 922.379162,315.486656 L924.370441,318.824473 L927.070426,315.430315 Z M926.407749,323.207679 L926.836953,317.384903 L924.718151,320.049057 C924.491837,320.333409 924.045718,320.303947 923.859742,319.9927 L921.936721,316.768171 L920.143222,319.858919 C919.961792,320.172092 919.51762,320.207308 919.287411,319.927444 L917.207731,317.396415 L917.78522,323.207551 L926.407749,323.207679 Z" id="Fill-1" fill="#7FD6C2" opacity="0.53"></path>
                </g>
            </g>
        </g>
    </g>
</svg>