<?xml version="1.0" encoding="UTF-8"?>
<svg width="50px" height="50px" viewBox="0 0 50 50" version="1.1" xmlns="http://www.w3.org/2000/svg" xmlns:xlink="http://www.w3.org/1999/xlink">
    <!-- Generator: Sketch 55.2 (78181) - https://sketchapp.com -->
    <title>completed</title>
    <desc>Created with Sketch.</desc>
    <g id="Logo-and-Assets" stroke="none" stroke-width="1" fill="none" fill-rule="evenodd">
        <g id="Artboard" transform="translate(-360.000000, -264.000000)" fill="#7FD6C2">
            <path d="M367.316766,271.328781 C362.629763,276.017734 359.997998,282.377204 359.999997,289.008254 C360.002,295.639309 362.637516,301.996779 367.32827,306.683736 C372.017223,311.370736 378.376693,314.002501 385.007748,314.000503 C391.638803,313.9985 397.996273,311.362983 402.683225,306.672227 C407.370227,301.983274 410.001993,295.623804 409.999997,288.992749 C409.990224,282.365696 407.350721,276.012232 402.663719,271.32728 C397.974766,266.642228 391.619297,264.006512 384.992243,264.00101 C378.361188,264.00246 372.003718,266.638022 367.316766,271.328781 Z M384.17549,297.846993 C383.679241,298.349098 383.003227,298.632386 382.297958,298.632386 C381.590689,298.632386 380.91473,298.349093 380.418476,297.846993 L371.872828,289.301345 C370.835406,288.263923 370.835406,286.581752 371.872828,285.544331 C372.910249,284.504958 374.59242,284.504958 375.629842,285.544331 L382.297908,292.212397 L394.354144,280.156161 C395.391565,279.116789 397.073737,279.116789 398.111158,280.15421 C399.14858,281.191632 399.14858,282.873803 398.111158,283.911224 L384.17549,297.846993 Z" id="completed"></path>
        </g>
    </g>
</svg>