<?xml version="1.0" encoding="UTF-8"?>
<svg width="50px" height="50px" viewBox="0 0 50 50" version="1.1" xmlns="http://www.w3.org/2000/svg" xmlns:xlink="http://www.w3.org/1999/xlink">
    <!-- Generator: Sketch 55.2 (78181) - https://sketchapp.com -->
    <title>in-progress</title>
    <desc>Created with Sketch.</desc>
    <g id="Logo-and-Assets" stroke="none" stroke-width="1" fill="none" fill-rule="evenodd">
        <g id="Artboard" transform="translate(-147.000000, -264.000000)" fill="#E0719E">
            <path d="M171.992248,264 C165.361193,264.001956 159.003722,266.637517 154.31677,271.328276 C149.629767,276.017229 146.998001,282.3767 147.000001,289.00775 C147.002003,295.638805 149.63752,301.996275 154.328273,306.683233 C159.017226,311.370234 165.376697,314.001999 172.007752,314 C178.638807,313.997997 184.996278,311.362481 189.68323,306.671724 C194.370233,301.982771 197.001998,295.6233 197.000001,288.992245 C196.99023,282.365192 194.350727,276.011728 189.663724,271.326776 C184.974771,266.641724 178.619301,264.006007 171.992248,264.000505 L171.992248,264 Z M160.254108,292.508835 C162.325817,292.508835 164.00527,290.829383 164.00527,288.757673 C164.00527,286.685963 162.325817,285.00651 160.254108,285.00651 C158.182398,285.00651 156.502945,286.685963 156.502945,288.757673 C156.502945,290.829383 158.182398,292.508835 160.254108,292.508835 Z M171.757673,292.508835 C173.829383,292.508835 175.508835,290.829383 175.508835,288.757673 C175.508835,286.685963 173.829383,285.00651 171.757673,285.00651 C169.685963,285.00651 168.00651,286.685963 168.00651,288.757673 C168.00651,290.829383 169.685963,292.508835 171.757673,292.508835 Z M183.261238,292.508835 C185.332948,292.508835 187.0124,290.829383 187.0124,288.757673 C187.0124,286.685963 185.332948,285.00651 183.261238,285.00651 C181.189528,285.00651 179.510075,286.685963 179.510075,288.757673 C179.510075,290.829383 181.189528,292.508835 183.261238,292.508835 Z" id="in-progress"></path>
        </g>
    </g>
</svg>